<mxfile host="Electron" modified="2024-04-15T15:32:27.296Z" agent="Mozilla/5.0 (Windows NT 10.0; Win64; x64) AppleWebKit/537.36 (KHTML, like Gecko) draw.io/21.6.1 Chrome/112.0.5615.204 Electron/24.6.1 Safari/537.36" etag="i7hRSQooH55iwhjcvjkr" version="21.6.1" type="device">
  <diagram name="DecFlow" id="ZKJf7fI8kX8jAXk52elV">
    <mxGraphModel dx="1181" dy="690" grid="1" gridSize="10" guides="1" tooltips="1" connect="1" arrows="1" fold="1" page="1" pageScale="1" pageWidth="827" pageHeight="1169" math="0" shadow="0">
      <root>
        <mxCell id="0" />
        <mxCell id="1" parent="0" />
        <mxCell id="EtnP70P4__ClIbagokU5-2" style="edgeStyle=none;rounded=0;orthogonalLoop=1;jettySize=auto;html=1;entryX=0;entryY=0.5;entryDx=0;entryDy=0;" edge="1" parent="1" source="pjHpdQmLLmTBc14S7H1v-1" target="EtnP70P4__ClIbagokU5-1">
          <mxGeometry relative="1" as="geometry" />
        </mxCell>
        <mxCell id="pjHpdQmLLmTBc14S7H1v-1" value="" style="sketch=0;html=1;aspect=fixed;strokeColor=#82b366;shadow=0;fillColor=#d5e8d4;verticalAlign=top;labelPosition=center;verticalLabelPosition=bottom;shape=mxgraph.gcp2.play_start" parent="1" vertex="1">
          <mxGeometry x="60" y="40" width="30" height="30" as="geometry" />
        </mxCell>
        <mxCell id="pjHpdQmLLmTBc14S7H1v-2" value="" style="ellipse;html=1;shape=endState;fillColor=strokeColor;" parent="1" vertex="1">
          <mxGeometry x="414" y="490" width="30" height="30" as="geometry" />
        </mxCell>
        <mxCell id="EtnP70P4__ClIbagokU5-4" style="edgeStyle=none;rounded=0;orthogonalLoop=1;jettySize=auto;html=1;entryX=-0.034;entryY=0.485;entryDx=0;entryDy=0;entryPerimeter=0;" edge="1" parent="1" source="EtnP70P4__ClIbagokU5-1" target="EtnP70P4__ClIbagokU5-3">
          <mxGeometry relative="1" as="geometry" />
        </mxCell>
        <mxCell id="EtnP70P4__ClIbagokU5-1" value="Input x0" style="rounded=1;whiteSpace=wrap;html=1;" vertex="1" parent="1">
          <mxGeometry x="180" y="40" width="110" height="30" as="geometry" />
        </mxCell>
        <mxCell id="EtnP70P4__ClIbagokU5-6" style="edgeStyle=none;rounded=0;orthogonalLoop=1;jettySize=auto;html=1;" edge="1" parent="1" source="EtnP70P4__ClIbagokU5-3" target="EtnP70P4__ClIbagokU5-5">
          <mxGeometry relative="1" as="geometry" />
        </mxCell>
        <mxCell id="EtnP70P4__ClIbagokU5-3" value="Set Fx" style="rounded=1;whiteSpace=wrap;html=1;" vertex="1" parent="1">
          <mxGeometry x="370" y="37.5" width="120" height="35" as="geometry" />
        </mxCell>
        <mxCell id="EtnP70P4__ClIbagokU5-9" style="edgeStyle=none;rounded=0;orthogonalLoop=1;jettySize=auto;html=1;entryX=0.833;entryY=-0.022;entryDx=0;entryDy=0;entryPerimeter=0;" edge="1" parent="1" source="EtnP70P4__ClIbagokU5-5" target="EtnP70P4__ClIbagokU5-8">
          <mxGeometry relative="1" as="geometry" />
        </mxCell>
        <mxCell id="EtnP70P4__ClIbagokU5-10" value="true" style="edgeLabel;html=1;align=center;verticalAlign=middle;resizable=0;points=[];" vertex="1" connectable="0" parent="EtnP70P4__ClIbagokU5-9">
          <mxGeometry x="0.0173" relative="1" as="geometry">
            <mxPoint as="offset" />
          </mxGeometry>
        </mxCell>
        <mxCell id="EtnP70P4__ClIbagokU5-13" style="edgeStyle=none;rounded=0;orthogonalLoop=1;jettySize=auto;html=1;" edge="1" parent="1" source="EtnP70P4__ClIbagokU5-5" target="EtnP70P4__ClIbagokU5-12">
          <mxGeometry relative="1" as="geometry" />
        </mxCell>
        <mxCell id="EtnP70P4__ClIbagokU5-15" value="false" style="edgeLabel;html=1;align=center;verticalAlign=middle;resizable=0;points=[];" vertex="1" connectable="0" parent="EtnP70P4__ClIbagokU5-13">
          <mxGeometry x="-0.0864" y="-1" relative="1" as="geometry">
            <mxPoint as="offset" />
          </mxGeometry>
        </mxCell>
        <mxCell id="EtnP70P4__ClIbagokU5-5" value="Fcond" style="rhombus;whiteSpace=wrap;html=1;" vertex="1" parent="1">
          <mxGeometry x="405" y="170" width="50" height="50" as="geometry" />
        </mxCell>
        <mxCell id="EtnP70P4__ClIbagokU5-11" style="edgeStyle=none;rounded=0;orthogonalLoop=1;jettySize=auto;html=1;" edge="1" parent="1" source="EtnP70P4__ClIbagokU5-8" target="pjHpdQmLLmTBc14S7H1v-2">
          <mxGeometry relative="1" as="geometry" />
        </mxCell>
        <mxCell id="EtnP70P4__ClIbagokU5-8" value="PrintX" style="rounded=1;whiteSpace=wrap;html=1;" vertex="1" parent="1">
          <mxGeometry x="210" y="295" width="100" height="30" as="geometry" />
        </mxCell>
        <mxCell id="EtnP70P4__ClIbagokU5-14" style="edgeStyle=none;rounded=0;orthogonalLoop=1;jettySize=auto;html=1;entryX=1;entryY=0;entryDx=0;entryDy=0;" edge="1" parent="1" source="EtnP70P4__ClIbagokU5-12" target="pjHpdQmLLmTBc14S7H1v-2">
          <mxGeometry relative="1" as="geometry" />
        </mxCell>
        <mxCell id="EtnP70P4__ClIbagokU5-12" value="PrintY" style="rounded=1;whiteSpace=wrap;html=1;" vertex="1" parent="1">
          <mxGeometry x="550" y="290" width="90" height="35" as="geometry" />
        </mxCell>
      </root>
    </mxGraphModel>
  </diagram>
</mxfile>
